<?xml version="1.0" standalone="no"?>
<!DOCTYPE svg PUBLIC "-//W3C//DTD SVG 20010904//EN"
 "http://www.w3.org/TR/2001/REC-SVG-20010904/DTD/svg10.dtd">
<svg version="1.0" xmlns="http://www.w3.org/2000/svg"
 width="512.000000pt" height="512.000000pt" viewBox="0 0 512.000000 512.000000"
 preserveAspectRatio="xMidYMid meet">
<metadata>
Created by potrace 1.11, written by Peter Selinger 2001-2013
</metadata>
<g transform="translate(0.000000,512.000000) scale(0.100000,-0.100000)"
fill="#000000" stroke="none">
<path d="M1245 4060 c-325 -5 -333 -7 -358 -62 -6 -16 -14 -28 -17 -28 -3 0
-4 -363 -3 -808 2 -444 3 -1080 3 -1414 l1 -608 38 -40 38 -40 204 0 c112 0
835 0 1607 0 l1403 0 30 21 c63 45 59 -57 61 1483 2 774 1 1406 -2 1406 -3 0
-14 16 -24 35 -12 21 -31 38 -50 45 -34 11 -2379 19 -2931 10z m2751 -252 c12
-13 9 -2489 -3 -2496 -15 -9 -2860 -8 -2869 1 -8 8 -9 2480 -1 2493 6 11 2862
12 2873 2z"/>
<path d="M3600 3414 c-47 -13 -94 -26 -105 -29 -11 -2 -119 -31 -240 -64 -121
-33 -242 -67 -270 -74 -35 -10 -54 -21 -65 -40 -13 -24 -13 -28 8 -49 12 -13
50 -39 84 -57 35 -19 71 -39 80 -46 15 -10 -22 -50 -286 -314 -230 -230 -305
-299 -312 -289 -6 7 -68 119 -138 249 l-128 237 -446 -445 -446 -444 116 -116
115 -115 288 286 c158 157 291 286 294 286 4 0 17 -19 29 -42 12 -24 36 -70
54 -103 19 -33 56 -100 83 -150 27 -49 61 -112 76 -140 15 -27 31 -49 36 -47
4 1 212 206 461 455 432 431 454 451 468 432 8 -11 36 -57 61 -102 46 -83 69
-101 104 -83 19 11 30 42 84 245 21 77 48 178 61 225 83 304 85 316 60 346 -9
12 -58 7 -126 -12z"/>
</g>
</svg>
