<svg xmlns:dc="http://purl.org/dc/elements/1.1/" xmlns:cc="http://creativecommons.org/ns#" xmlns:rdf="http://www.w3.org/1999/02/22-rdf-syntax-ns#" xmlns:svg="http://www.w3.org/2000/svg" xmlns="http://www.w3.org/2000/svg" xmlns:sodipodi="http://sodipodi.sourceforge.net/DTD/sodipodi-0.dtd" xmlns:inkscape="http://www.inkscape.org/namespaces/inkscape" version="1.1" x="0px" y="0px" viewBox="0 0 100 125"><g transform="translate(0,-952.36218)"><path style="text-indent:0;text-transform:none;direction:ltr;block-progression:tb;baseline-shift:baseline;color:#000000;enable-background:accumulate;" d="m 18,955.36219 c -1.859,1.4e-4 -2.9616,1.58663 -3,3 l 0,88.00001 c 2e-4,1.5707 1.4292,2.9998 3,3 l 50,0 c 0.7905,-0.01 1.5733,-0.3401 2.125,-0.9063 l 14,-14 c 0.5476,-0.5494 0.8688,-1.318 0.875,-2.0937 l 0,-74.00001 c -2e-4,-1.57075 -1.4292,-2.99984 -3,-3 z m 3,6 58,0 0,68.00001 -11,0 c -1.6831,0 -3.0218,1.5325 -3,3 l 0,11 -44,0 z m 17,9.00002 c -2.2091,0 -4,1.7909 -4,4 0,2.2092 1.7909,4 4,4 2.2091,0 4,-1.7908 4,-4 0,-2.2091 -1.7909,-4 -4,-4 z m 15,8 c -1.6568,0 -3,1.3432 -3,3 0,1.6569 1.3432,3 3,3 l 17,0 c 1.6568,0 3,-1.3431 3,-3 0,-1.6568 -1.3432,-3 -3,-3 z m -15,1 c -3.6923,0 -8,1.4 -8,7 l 16,0 c 0,-5.6 -4.3077,-7 -8,-7 z m -8,13 c -1.6568,0 -3,1.3432 -3,3 0,1.6569 1.3432,3 3,3 l 40,0 c 1.6569,0 3,-1.3431 3,-3 0,-1.6568 -1.3431,-3 -3,-3 z m 0,13.99999 c -1.6568,0 -3,1.3432 -3,3 0,1.6569 1.3432,3 3,3 l 40,0 c 1.6569,0 3,-1.3431 3,-3 0,-1.6568 -1.3431,-3 -3,-3 z m 0,14 c -1.6568,0 -3,1.3432 -3,3 0,1.6569 1.3432,3 3,3 l 40,0 c 1.6569,0 3,-1.3431 3,-3 0,-1.6568 -1.3431,-3 -3,-3 z m 41,15 3.75,0 -3.75,3.75 z" fill="#ffffff" fill-opacity="1" stroke="none" marker="none" visibility="visible" display="inline" overflow="visible"/></g></svg>